{"title":"Ithinumappuram Malayalam 2016 DesiSCR x264-HDF.mp4","uid":15698945,"size":1084205222,"categoryP":"video","categoryS":"movies","magnet":"?xt=urn:btih:c0f4c1a7cda01d076cf1959f495f2a11bbf9463d&amp;dn=Ithinumappuram+Malayalam+2016+DesiSCR+x264-HDF.mp4&amp;tr=udp%3A%2F%2Ftracker.leechers-paradise.org%3A6969&amp;tr=udp%3A%2F%2Fzer0day.ch%3A1337&amp;tr=udp%3A%2F%2Fopen.demonii.com%3A1337&amp;tr=udp%3A%2F%2Ftracker.coppersurfer.tk%3A6969&amp;tr=udp%3A%2F%2Fexodus.desync.com%3A6969","seeders":13,"leechers":5,"uploader":null,"files":1,"time":1472461209,"description":"http://www.movierulzfull.in/ presents:\r\n\r\nIthinumappuram Malayalam 2016 DesiSCR x264-HDF.mp4\r\n\r\nScreens:\r\n \nhttp://extraimago.com/images/2016/08/29/wqwP.png \nhttp://extraimago.com/images/2016/08/29/wqwX.png \nhttp://extraimago.com/images/2016/08/29/wqwg.png \nhttp://extraimago.com/images/2016/08/29/wqw5.png \nhttp://extraimago.com/images/2016/08/29/wqwD.png\r\n\r\nInfo:\r\n\r\nFormat : MPEG-4\r\nFormat profile : Base Media\r\nCodec ID : isom (isom/iso2/avc1/mp41)\r\nFile size : 1.01 GiB\r\nDuration : 2 h 9 min\r\nOverall bit rate : 1 118 kb/s\r\nWriting application : Lavf57.25.100\r\n\r\nVideo\r\nID : 1\r\nFormat : AVC\r\nFormat/Info : Advanced Video Codec\r\nFormat profile :   \r\nFormat settings, CABAC : Yes\r\nFormat settings, ReFrames : 3 frames\r\nCodec ID : avc1\r\nCodec ID/Info : Advanced Video Coding\r\nDuration : 2 h 9 min\r\nBit rate : 987 kb/s\r\nWidth : 1 280 pixels\r\nHeight : 720 pixels\r\nDisplay aspect ratio : 16:9\r\nFrame rate mode : Constant\r\nFrame rate : 24.000 FPS\r\nColor space : YUV\r\nChroma subsampling : 4:2:0\r\nBit depth : 8 bits\r\nScan type : Progressive\r\nBits/(Pixel*Frame) : 0.045\r\nStream size : 912 MiB (88%)\r\nColor range : Limited\r\nColor primaries : BT.709\r\nTransfer characteristics : BT.709\r\nMatrix coefficients : BT.709\r\n\r\nAudio\r\nID : 2\r\nFormat : AAC\r\nFormat/Info : Advanced Audio Codec\r\nFormat profile : LC\r\nCodec ID : 40\r\nDuration : 2 h 9 min\r\nBit rate mode : Constant\r\nBit rate : 126 kb/s\r\nChannel(s) : 2 channels\r\nChannel positions : Front: L R\r\nSampling rate : 44.1 kHz\r\nFrame rate : 43.066 FPS (1024 spf)\r\nCompression mode : Lossy\r\nStream size : 116 MiB (11%)\r\nDefault : Yes\r\nAlternate group : 1 \r\n \nhttp://www.movierulzfull.in/ithinumappuram-full-movie-watch/\r\n \nhttp://tvmoviereviews.drupalgardens.com/content/ithinumappuram-review","torrent":{"xt":"urn:btih:c0f4c1a7cda01d076cf1959f495f2a11bbf9463d","amp;dn":"Ithinumappuram+Malayalam+2016+DesiSCR+x264-HDF.mp4","amp;tr":["udp%3A%2F%2Ftracker.leechers-paradise.org%3A6969","udp%3A%2F%2Fzer0day.ch%3A1337","udp%3A%2F%2Fopen.demonii.com%3A1337","udp%3A%2F%2Ftracker.coppersurfer.tk%3A6969","udp%3A%2F%2Fexodus.desync.com%3A6969"],"infoHash":"c0f4c1a7cda01d076cf1959f495f2a11bbf9463d","infoHashBuffer":{"type":"Buffer","data":[192,244,193,167,205,160,29,7,108,241,149,159,73,95,42,17,187,249,70,61]},"announce":[],"urlList":[]}}